<svg id="cleaning_services_icon" data-name="cleaning services icon" xmlns="http://www.w3.org/2000/svg" width="150" height="150" viewBox="0 0 150 150">
  <circle id="Ellipse_5" data-name="Ellipse 5" cx="75" cy="75" r="75" fill="#3f7a39"/>
  <g id="dust" transform="translate(24.707 1.712)">
    <g id="Group_2" data-name="Group 2" transform="translate(1.253 71.476)">
      <g id="Group_1" data-name="Group 1">
        <path id="Path_36" data-name="Path 36" d="M20.077,284.816c-7.944,3.453-11.783,7-13.509,10.051H22.855c1.78,0,5.3-1.094,8.921-8.423a42.726,42.726,0,0,0,2.393-6.022A71.109,71.109,0,0,0,20.077,284.816Z" transform="translate(-6.568 -280.423)" fill="#fff"/>
      </g>
    </g>
    <g id="Group_5" data-name="Group 5" transform="translate(62.947 88.952)">
      <g id="Group_4" data-name="Group 4">
        <g id="Group_3" data-name="Group 3">
          <path id="Path_37" data-name="Path 37" d="M478.013,372.028Z" transform="translate(-449.769 -372.028)" fill="#fff"/>
          <path id="Path_38" data-name="Path 38" d="M358.2,372.028a11.339,11.339,0,1,1-21.761,0H329.96v21.015h34.728V372.028Z" transform="translate(-329.96 -372.028)" fill="#fff"/>
        </g>
      </g>
    </g>
    <g id="Group_7" data-name="Group 7" transform="translate(31.142 92.725)">
      <g id="Group_6" data-name="Group 6">
        <path id="Path_39" data-name="Path 39" d="M172.588,391.807a9.345,9.345,0,1,0,9.345,9.345A9.356,9.356,0,0,0,172.588,391.807Z" transform="translate(-163.242 -391.807)" fill="#fff"/>
      </g>
    </g>
    <g id="Group_9" data-name="Group 9" transform="translate(0 22.218)">
      <g id="Group_8" data-name="Group 8">
        <path id="Path_40" data-name="Path 40" d="M83.5,88.326V44.608a22.39,22.39,0,1,0-44.781,0V70.284c-.967.032-1.956.094-2.96.183A49.853,49.853,0,0,1,32.18,80.3c-3.866,7.842-8.928,11.987-14.64,11.987H0l0,2.171c0,2.788.359,6.817,3.467,9.6,2.24,2.008,5.506,3,10.276,3.109H25.627a15.715,15.715,0,1,1,30.379-2.622c2.8-2.172,4.369-5.6,4.369-9.965V86.673c-.1-5.2-2.09-9.455-5.757-12.31a19.964,19.964,0,0,0-9.531-3.757v-26a16.02,16.02,0,1,1,32.041,0V88.326a4.969,4.969,0,1,0,6.369,0Z" transform="translate(0 -22.218)" fill="#fff"/>
      </g>
    </g>
  </g>
</svg>
