<svg id="customer_service_icon" data-name="customer service icon" xmlns="http://www.w3.org/2000/svg" width="150" height="150" viewBox="0 0 150 150">
  <circle id="Ellipse_6" data-name="Ellipse 6" cx="75" cy="75" r="75" fill="#3f7a39"/>
  <g id="conversation" transform="translate(27 22.93)">
    <g id="Group_11" data-name="Group 11" transform="translate(8.438 53.813)">
      <g id="Group_10" data-name="Group 10">
        <path id="Path_41" data-name="Path 41" d="M53.438,287a8.437,8.437,0,1,0,8.438,8.437A8.447,8.447,0,0,0,53.438,287Z" transform="translate(-45 -287)" fill="#fff"/>
      </g>
    </g>
    <g id="Group_13" data-name="Group 13" transform="translate(0 70.688)">
      <g id="Group_12" data-name="Group 12">
        <path id="Path_42" data-name="Path 42" d="M22.5,377H11.25A11.261,11.261,0,0,0,0,388.25V399.5a2.811,2.811,0,0,0,2.813,2.813H30.938A2.811,2.811,0,0,0,33.75,399.5V388.25A11.261,11.261,0,0,0,22.5,377Z" transform="translate(0 -377)" fill="#fff"/>
      </g>
    </g>
    <g id="Group_15" data-name="Group 15" transform="translate(70.688 53.813)">
      <g id="Group_14" data-name="Group 14">
        <path id="Path_43" data-name="Path 43" d="M385.438,287a8.437,8.437,0,1,0,8.438,8.437A8.447,8.447,0,0,0,385.438,287Z" transform="translate(-377 -287)" fill="#fff"/>
      </g>
    </g>
    <g id="Group_17" data-name="Group 17" transform="translate(62.25 70.688)">
      <g id="Group_16" data-name="Group 16">
        <path id="Path_44" data-name="Path 44" d="M354.5,377H343.25A11.261,11.261,0,0,0,332,388.25V399.5a2.811,2.811,0,0,0,2.813,2.813h28.125a2.811,2.811,0,0,0,2.813-2.812V388.25A11.261,11.261,0,0,0,354.5,377Z" transform="translate(-332 -377)" fill="#fff"/>
      </g>
    </g>
    <g id="Group_19" data-name="Group 19" transform="translate(11.438)">
      <g id="Group_18" data-name="Group 18">
        <path id="Path_45" data-name="Path 45" d="M97.563,0h-22.5A14.063,14.063,0,0,0,61,14.063V30.938a14.086,14.086,0,0,0,11.25,13.78v8.72a2.813,2.813,0,0,0,4.8,1.989L87.477,45H97.563a14.063,14.063,0,0,0,14.063-14.063V14.063A14.063,14.063,0,0,0,97.563,0Zm-.824,16.051L85.488,27.3a2.812,2.812,0,0,1-3.977,0l-5.625-5.625A2.812,2.812,0,0,1,79.863,17.7L83.5,21.335l9.262-9.262a2.812,2.812,0,1,1,3.977,3.977Z" transform="translate(-61)" fill="#fff"/>
      </g>
    </g>
    <g id="Group_21" data-name="Group 21" transform="translate(59.735 5.625)">
      <g id="Group_20" data-name="Group 20">
        <path id="Path_46" data-name="Path 46" d="M329.354,30h-4.787a19.459,19.459,0,0,1,1.975,8.438V55.313a19.611,19.611,0,0,1-7.952,15.713l8.776,8.776a2.813,2.813,0,0,0,4.8-1.989v-8.72a14.087,14.087,0,0,0,11.25-13.78V44.063A14.063,14.063,0,0,0,329.354,30Z" transform="translate(-318.589 -30)" fill="#fff"/>
      </g>
    </g>
  </g>
</svg>
