<svg id="instagram" xmlns="http://www.w3.org/2000/svg" width="46.734" height="46.734" viewBox="0 0 46.734 46.734">
  <g id="Group_24" data-name="Group 24">
    <g id="Group_23" data-name="Group 23">
      <path id="Path_48" data-name="Path 48" d="M32.13,0H14.6A14.606,14.606,0,0,0,0,14.6V32.13a14.606,14.606,0,0,0,14.6,14.6H32.13a14.606,14.606,0,0,0,14.6-14.6V14.6A14.606,14.606,0,0,0,32.13,0ZM42.353,32.13A10.234,10.234,0,0,1,32.13,42.353H14.6A10.234,10.234,0,0,1,4.381,32.13V14.6A10.234,10.234,0,0,1,14.6,4.381H32.13A10.234,10.234,0,0,1,42.353,14.6Z" fill="#c84b9d"/>
    </g>
  </g>
  <g id="Group_26" data-name="Group 26" transform="translate(11.684 11.684)">
    <g id="Group_25" data-name="Group 25">
      <path id="Path_49" data-name="Path 49" d="M139.684,128a11.684,11.684,0,1,0,11.684,11.684A11.684,11.684,0,0,0,139.684,128Zm0,18.986a7.3,7.3,0,1,1,7.3-7.3A7.312,7.312,0,0,1,139.684,146.986Z" transform="translate(-128 -128)" fill="#c84b9d"/>
    </g>
  </g>
  <g id="Group_28" data-name="Group 28" transform="translate(34.37 9.25)">
    <g id="Group_27" data-name="Group 27">
      <circle id="Ellipse_8" data-name="Ellipse 8" cx="1.557" cy="1.557" r="1.557" fill="#c84b9d"/>
    </g>
  </g>
</svg>
