<svg id="new_technology_icon" data-name="new technology icon" xmlns="http://www.w3.org/2000/svg" width="150" height="150" viewBox="0 0 150 150">
  <circle id="Ellipse_7" data-name="Ellipse 7" cx="75" cy="75" r="75" fill="#3f7a39"/>
  <g id="atom" transform="translate(-28.725 4.177)">
    <path id="Path_19" data-name="Path 19" d="M246.553,25.029a1.552,1.552,0,0,0,1.552-1.552v-8.9a1.552,1.552,0,0,0-3.1,0v8.9A1.552,1.552,0,0,0,246.553,25.029Z" transform="translate(-143.441)" fill="#fff"/>
    <path id="Path_20" data-name="Path 20" d="M409.44,97.091l-8.1,7.037a1.552,1.552,0,1,0,2.037,2.344l8.1-7.037a1.552,1.552,0,1,0-2.037-2.344Z" transform="translate(-264.695 -65.129)" fill="#fff"/>
    <path id="Path_21" data-name="Path 21" d="M63.3,90.389a1.553,1.553,0,1,0-2.142,2.248l7.668,7.309A1.553,1.553,0,1,0,70.971,97.7Z" transform="translate(0 -59.875)" fill="#fff"/>
    <path id="Path_22" data-name="Path 22" d="M225.922,165.221c-.054.111-.106.226-.158.34a43.884,43.884,0,0,1,6.538,2.562,43.879,43.879,0,0,1,6.536-2.561c-1.611-3.526-3.63-5.734-5.661-6.232a5.419,5.419,0,0,1-7.254,5.892Z" transform="translate(-128.472 -113.86)" fill="#fff"/>
    <circle id="Ellipse_1" data-name="Ellipse 1" cx="2.315" cy="2.315" r="2.315" transform="translate(97.031 43.969)" fill="#fff"/>
    <path id="Path_23" data-name="Path 23" d="M274.7,204.407q.847.581,1.665,1.188a38.752,38.752,0,0,0-1.295-5.1,37.91,37.91,0,0,0-4.2,1.5C272.161,202.739,273.442,203.541,274.7,204.407Z" transform="translate(-163.577 -145.899)" fill="#fff"/>
    <path id="Path_24" data-name="Path 24" d="M216.5,309.945c-.566-.388-1.12-.786-1.665-1.189a38.8,38.8,0,0,0,1.295,5.1,37.964,37.964,0,0,0,4.2-1.5C219.039,311.613,217.758,310.81,216.5,309.945Z" transform="translate(-119.963 -230.147)" fill="#fff"/>
    <path id="Path_25" data-name="Path 25" d="M220.315,201.994a37.929,37.929,0,0,0-4.2-1.5,38.662,38.662,0,0,0-1.294,5.1q.821-.607,1.668-1.19C217.747,203.538,219.028,202.736,220.315,201.994Z" transform="translate(-119.952 -145.896)" fill="#fff"/>
    <path id="Path_26" data-name="Path 26" d="M225.772,335.817c1.842,4.031,4.218,6.34,6.536,6.34s4.694-2.309,6.536-6.34a43.913,43.913,0,0,1-6.536-2.561,43.9,43.9,0,0,1-6.536,2.561Z" transform="translate(-128.478 -249.213)" fill="#fff"/>
    <path id="Path_27" data-name="Path 27" d="M167.2,209.041a49.183,49.183,0,0,1,4.217-4.136,45.693,45.693,0,0,1,1.826-8.664c-4.363-.758-7.61-.106-8.921,1.805-1.328,1.938-.735,5.266,1.628,9.131C166.326,207.8,166.746,208.419,167.2,209.041Z" transform="translate(-80.113 -142.344)" fill="#fff"/>
    <circle id="Ellipse_2" data-name="Ellipse 2" cx="2.315" cy="2.315" r="2.315" transform="translate(81.113 72.555)" fill="#fff"/>
    <rect id="Rectangle_16" data-name="Rectangle 16" width="26.614" height="8.206" transform="translate(90.691 112.596)" fill="#fff"/>
    <path id="Path_28" data-name="Path 28" d="M188.612,258.985q.9,1.029,1.91,2.042c-.023-.678-.039-1.359-.039-2.046s.012-1.36.036-2.034Q189.51,257.958,188.612,258.985Z" transform="translate(-99.559 -189.828)" fill="#fff"/>
    <path id="Path_29" data-name="Path 29" d="M168.714,284.384a5.417,5.417,0,0,1-5.069,7.083,4.249,4.249,0,0,0,.691,2.317c1.311,1.912,4.559,2.564,8.925,1.8a45.515,45.515,0,0,1-1.828-8.656Q170,285.684,168.714,284.384Z" transform="translate(-80.129 -211.18)" fill="#fff"/>
    <path id="Path_30" data-name="Path 30" d="M308.1,284.04a5.388,5.388,0,0,1,.487-2.24c-1.015,1.062-2.111,2.107-3.278,3.123a45.529,45.529,0,0,1-1.828,8.656c4.365.759,7.614.107,8.924-1.8a4.26,4.26,0,0,0,.69-2.333A5.426,5.426,0,0,1,308.1,284.04Z" transform="translate(-188.956 -209.169)" fill="#fff"/>
    <path id="Path_31" data-name="Path 31" d="M315.17,258.977q-.9-1.027-1.91-2.039c.022.674.039,1.353.039,2.036s-.015,1.368-.039,2.046Q314.272,260.008,315.17,258.977Z" transform="translate(-196.563 -189.821)" fill="#fff"/>
    <path id="Path_32" data-name="Path 32" d="M303.485,196.24a45.527,45.527,0,0,1,1.829,8.663,49.069,49.069,0,0,1,4.218,4.136c.451-.621.872-1.243,1.25-1.863,2.363-3.865,2.956-7.193,1.628-9.132C311.1,196.134,307.85,195.48,303.485,196.24Z" transform="translate(-188.956 -142.344)" fill="#fff"/>
    <path id="Path_33" data-name="Path 33" d="M270.874,312.354a37.958,37.958,0,0,0,4.2,1.5,38.74,38.74,0,0,0,1.295-5.1c-.546.4-1.1.8-1.665,1.189C273.441,310.81,272.161,311.613,270.874,312.354Z" transform="translate(-163.577 -230.147)" fill="#fff"/>
    <circle id="Ellipse_3" data-name="Ellipse 3" cx="2.315" cy="2.315" r="2.315" transform="translate(122.254 72.555)" fill="#fff"/>
    <circle id="Ellipse_4" data-name="Ellipse 4" cx="2.315" cy="2.315" r="2.315" transform="translate(101.515 66.838)" fill="#fff"/>
    <path id="Path_34" data-name="Path 34" d="M226.391,217.965a53.987,53.987,0,0,0-5.542-3.334,54,54,0,0,0-5.542,3.334c-1.411.967-2.759,1.99-4.031,3.049-.151,1.635-.229,3.32-.229,5.034s.08,3.4.231,5.042c1.266,1.052,2.613,2.071,4.028,3.042a54.017,54.017,0,0,0,5.542,3.335,53.986,53.986,0,0,0,5.542-3.335c1.416-.971,2.762-1.99,4.028-3.042.151-1.639.231-3.327.231-5.042s-.079-3.4-.231-5.037C229.149,219.955,227.8,218.932,226.391,217.965Zm-5.542,13.5a5.42,5.42,0,1,1,5.42-5.42A5.42,5.42,0,0,1,220.849,231.469Z" transform="translate(-117.019 -156.897)" fill="#fff"/>
    <path id="Path_35" data-name="Path 35" d="M141.742,115.454a32.992,32.992,0,0,0-22.252,9.157,29.34,29.34,0,0,0-.89,42.583,28.376,28.376,0,0,1,8.434,20.234h-5.374a1.552,1.552,0,0,0,0,3.1h41.262a1.552,1.552,0,0,0,0-3.1h-5.8a27.5,27.5,0,0,1,8.578-20.1,30.286,30.286,0,0,0,8.854-21.154,29.794,29.794,0,0,0-9.056-21.313A32.847,32.847,0,0,0,141.742,115.454ZM161.3,149.393a5.418,5.418,0,0,1,4.234,9.9,7.514,7.514,0,0,1-1.228,4.778c-1.564,2.282-4.4,3.466-8.18,3.466a22.693,22.693,0,0,1-4.04-.391c-.123-.022-.248-.05-.371-.074-.05.116-.1.234-.149.348-2.409,5.379-5.764,8.341-9.445,8.341s-7.036-2.962-9.445-8.341c-.051-.114-.1-.233-.149-.348-.123.024-.248.052-.371.074a22.7,22.7,0,0,1-4.04.391c-3.776,0-6.616-1.183-8.181-3.466a7.69,7.69,0,0,1-1.211-4.975A5.418,5.418,0,0,1,123,149.317c.111-.15.222-.3.336-.449a32.192,32.192,0,0,1-1.858-2.7c-3.074-5.029-3.621-9.47-1.54-12.506s6.421-4.129,12.22-3.075c.121.022.244.05.367.073q.338-.782.708-1.51a5.416,5.416,0,0,1,8.082-7.127,6.744,6.744,0,0,1,.807-.051c3.682,0,7.035,2.962,9.445,8.341.051.114.1.233.149.348.124-.024.249-.052.371-.074,5.8-1.053,10.139.038,12.22,3.075s1.535,7.478-1.539,12.506a32.168,32.168,0,0,1-1.857,2.7c.134.176.262.351.391.527Z" transform="translate(-38.294 -79.712)" fill="#fff"/>
  </g>
</svg>
