<svg id="phone" xmlns="http://www.w3.org/2000/svg" width="13.898" height="13.898" viewBox="0 0 13.898 13.898">
  <g id="Group_22" data-name="Group 22">
    <path id="Path_47" data-name="Path 47" d="M12.783,9.122A7.891,7.891,0,0,1,10.3,8.728a1.133,1.133,0,0,0-1.1.232L7.64,10.14A8.636,8.636,0,0,1,3.758,6.258L4.9,4.736A1.123,1.123,0,0,0,5.179,3.6a7.9,7.9,0,0,1-.4-2.482A1.116,1.116,0,0,0,3.667,0H1.115A1.116,1.116,0,0,0,0,1.115,12.8,12.8,0,0,0,12.783,13.9,1.116,1.116,0,0,0,13.9,12.783V10.237A1.117,1.117,0,0,0,12.783,9.122Z" fill="#fff"/>
  </g>
</svg>
